<svg width="16" height="16" viewBox="0 0 16 16" fill="none" xmlns="http://www.w3.org/2000/svg">
<path d="M1 15C1 10.3365 1 8.00475 1.84323 6.19644C2.73746 4.27876 4.27876 2.73746 6.19644 1.84323C8.00475 1 10.3365 1 15 1C15 5.6635 15 7.99525 14.1568 9.80356C13.2625 11.7212 11.7212 13.2625 9.80356 14.1568C7.99525 15 5.6635 15 1 15Z" fill="#009966"/>
<path d="M10.2112 6.34407C6.12758 6.9087 4.95811 9.97319 3.83553 12.5245L4.65207 12.9613L5.16246 11.8275C5.36975 11.9397 5.58746 12.0323 5.74776 12.0509C10.646 12.6177 12.6276 4.03065 12.6276 4.03065C12.1063 5.00755 8.97977 4.77538 6.71531 5.03193C4.45085 5.28848 3.39883 7.37083 3.32287 8.39926C3.24691 9.42769 3.95971 10.4178 3.95971 10.4178C5.75825 5.82874 10.2112 6.34407 10.2112 6.34407Z" fill="white"/>
</svg>
