<?xml version="1.0" standalone="no"?><svg xmlns="http://www.w3.org/2000/svg" viewBox="0 0 1440 320"><path fill="#f1f5f9" fill-opacity="1" d="M0,128L30,128C60,128,120,128,180,138.7C240,149,300,171,360,160C420,149,480,107,540,117.3C600,128,660,192,720,202.7C780,213,840,171,900,170.7C960,171,1020,213,1080,234.7C1140,256,1200,256,1260,224C1320,192,1380,128,1410,96L1440,64L1440,320L1410,320C1380,320,1320,320,1260,320C1200,320,1140,320,1080,320C1020,320,960,320,900,320C840,320,780,320,720,320C660,320,600,320,540,320C480,320,420,320,360,320C300,320,240,320,180,320C120,320,60,320,30,320L0,320Z"></path></svg>