<svg width="22" height="22" viewBox="0 0 22 22" fill="none" xmlns="http://www.w3.org/2000/svg">
<path d="M4 18C4 13.3365 4 11.0047 4.84323 9.19644C5.73746 7.27876 7.27876 5.73746 9.19644 4.84323C11.0047 4 13.3365 4 18 4C18 8.6635 18 10.9953 17.1568 12.8036C16.2625 14.7212 14.7212 16.2625 12.8036 17.1568C10.9953 18 8.6635 18 4 18Z" fill="#009966"/>
<path d="M13.2112 9.34407C9.12758 9.9087 7.95811 12.9732 6.83553 15.5245L7.65207 15.9613L8.16246 14.8275C8.36975 14.9397 8.58746 15.0323 8.74776 15.0509C13.646 15.6177 15.6276 7.03065 15.6276 7.03065C15.1063 8.00755 11.9798 7.77538 9.71531 8.03193C7.45085 8.28848 6.39883 10.3708 6.32287 11.3993C6.24691 12.4277 6.95971 13.4178 6.95971 13.4178C8.75825 8.82874 13.2112 9.34407 13.2112 9.34407Z" fill="white"/>
</svg>
