<svg width="238" height="53" viewBox="0 0 238 53" fill="none" xmlns="http://www.w3.org/2000/svg">
<g clip-path="url(#clip0_86_8)">
<path d="M15.8847 43.248H31.3887V48H9.40468V43.728L24.8607 19.392H9.40468V14.64H31.3887V18.912L15.8847 43.248Z" fill="#009966"/>
<path d="M52.1423 37.38C52.1423 38.004 52.1063 38.664 52.0343 39.36H36.2663C36.3863 41.304 37.0463 42.828 38.2463 43.932C39.4703 45.012 40.9463 45.552 42.6743 45.552C44.0903 45.552 45.2663 45.228 46.2023 44.58C47.1623 43.908 47.8343 43.02 48.2183 41.916H51.7463C51.2183 43.812 50.1623 45.36 48.5783 46.56C46.9943 47.736 45.0263 48.324 42.6743 48.324C40.8023 48.324 39.1223 47.904 37.6343 47.064C36.1703 46.224 35.0183 45.036 34.1783 43.5C33.3383 41.94 32.9183 40.14 32.9183 38.1C32.9183 36.06 33.3263 34.272 34.1423 32.736C34.9583 31.2 36.0983 30.024 37.5623 29.208C39.0503 28.368 40.7543 27.948 42.6743 27.948C44.5463 27.948 46.2023 28.356 47.6423 29.172C49.0823 29.988 50.1863 31.116 50.9543 32.556C51.7463 33.972 52.1423 35.58 52.1423 37.38ZM48.7583 36.696C48.7583 35.448 48.4823 34.38 47.9303 33.492C47.3783 32.58 46.6223 31.896 45.6623 31.44C44.7263 30.96 43.6823 30.72 42.5303 30.72C40.8743 30.72 39.4583 31.248 38.2823 32.304C37.1303 33.36 36.4703 34.824 36.3023 36.696H48.7583ZM64.2785 27.912C66.6785 27.912 68.6225 28.644 70.1105 30.108C71.5985 31.548 72.3425 33.636 72.3425 36.372V48H69.1025V36.84C69.1025 34.872 68.6105 33.372 67.6265 32.34C66.6425 31.284 65.2985 30.756 63.5945 30.756C61.8665 30.756 60.4865 31.296 59.4545 32.376C58.4465 33.456 57.9425 35.028 57.9425 37.092V48H54.6665V28.272H57.9425V31.08C58.5905 30.072 59.4665 29.292 60.5705 28.74C61.6985 28.188 62.9345 27.912 64.2785 27.912ZM85.5059 27.912C87.9059 27.912 89.8499 28.644 91.3379 30.108C92.8259 31.548 93.5699 33.636 93.5699 36.372V48H90.3299V36.84C90.3299 34.872 89.8379 33.372 88.8539 32.34C87.8699 31.284 86.5259 30.756 84.8219 30.756C83.0939 30.756 81.7139 31.296 80.6819 32.376C79.6739 33.456 79.1699 35.028 79.1699 37.092V48H75.8939V28.272H79.1699V31.08C79.8179 30.072 80.6939 29.292 81.7979 28.74C82.9259 28.188 84.1619 27.912 85.5059 27.912ZM115.121 37.38C115.121 38.004 115.085 38.664 115.013 39.36H99.2452C99.3652 41.304 100.025 42.828 101.225 43.932C102.449 45.012 103.925 45.552 105.653 45.552C107.069 45.552 108.245 45.228 109.181 44.58C110.141 43.908 110.813 43.02 111.197 41.916H114.725C114.197 43.812 113.141 45.36 111.557 46.56C109.973 47.736 108.005 48.324 105.653 48.324C103.781 48.324 102.101 47.904 100.613 47.064C99.1492 46.224 97.9972 45.036 97.1572 43.5C96.3172 41.94 95.8972 40.14 95.8972 38.1C95.8972 36.06 96.3052 34.272 97.1212 32.736C97.9372 31.2 99.0772 30.024 100.541 29.208C102.029 28.368 103.733 27.948 105.653 27.948C107.525 27.948 109.181 28.356 110.621 29.172C112.061 29.988 113.165 31.116 113.933 32.556C114.725 33.972 115.121 35.58 115.121 37.38ZM111.737 36.696C111.737 35.448 111.461 34.38 110.909 33.492C110.357 32.58 109.601 31.896 108.641 31.44C107.705 30.96 106.661 30.72 105.509 30.72C103.853 30.72 102.437 31.248 101.261 32.304C100.109 33.36 99.4492 34.824 99.2812 36.696H111.737ZM124.629 48.324C123.117 48.324 121.761 48.072 120.561 47.568C119.361 47.04 118.413 46.32 117.717 45.408C117.021 44.472 116.637 43.404 116.565 42.204H119.949C120.045 43.188 120.501 43.992 121.317 44.616C122.157 45.24 123.249 45.552 124.593 45.552C125.841 45.552 126.825 45.276 127.545 44.724C128.265 44.172 128.625 43.476 128.625 42.636C128.625 41.772 128.241 41.136 127.473 40.728C126.705 40.296 125.517 39.876 123.909 39.468C122.445 39.084 121.245 38.7 120.309 38.316C119.397 37.908 118.605 37.32 117.933 36.552C117.285 35.76 116.961 34.728 116.961 33.456C116.961 32.448 117.261 31.524 117.861 30.684C118.461 29.844 119.313 29.184 120.417 28.704C121.521 28.2 122.781 27.948 124.197 27.948C126.381 27.948 128.145 28.5 129.489 29.604C130.833 30.708 131.553 32.22 131.649 34.14H128.373C128.301 33.108 127.881 32.28 127.113 31.656C126.369 31.032 125.361 30.72 124.089 30.72C122.913 30.72 121.977 30.972 121.281 31.476C120.585 31.98 120.237 32.64 120.237 33.456C120.237 34.104 120.441 34.644 120.849 35.076C121.281 35.484 121.809 35.82 122.433 36.084C123.081 36.324 123.969 36.6 125.097 36.912C126.513 37.296 127.665 37.68 128.553 38.064C129.441 38.424 130.197 38.976 130.821 39.72C131.469 40.464 131.805 41.436 131.829 42.636C131.829 43.716 131.529 44.688 130.929 45.552C130.329 46.416 129.477 47.1 128.373 47.604C127.293 48.084 126.045 48.324 124.629 48.324ZM138.65 30.972V42.6C138.65 43.56 138.854 44.244 139.262 44.652C139.67 45.036 140.378 45.228 141.386 45.228H143.798V48H140.846C139.022 48 137.654 47.58 136.742 46.74C135.83 45.9 135.374 44.52 135.374 42.6V30.972H132.818V28.272H135.374V23.304H138.65V28.272H143.798V30.972H138.65Z" fill="#4A4A4A"/>
<path d="M53.4292 12.7072C42.6513 10.827 37.2139 17.6248 32.3105 23.1636L34.0204 24.9287L36.2285 22.4768C36.6616 22.9281 37.1368 23.3385 37.5269 23.5152C49.4472 28.9148 61.4098 8.81748 61.4098 8.81748C59.3012 10.8642 51.5874 7.74533 45.6567 6.55978C39.7259 5.37423 35.3807 9.78497 34.3558 12.3226C33.3309 14.8603 34.3305 17.9397 34.3305 17.9397C42.5926 7.79847 53.4292 12.7072 53.4292 12.7072Z" fill="#009966"/>
<path d="M172.178 20.08V48H166.578V36.12H154.618V48H149.018V20.08H154.618V31.56H166.578V20.08H172.178ZM185.53 48.36C183.396 48.36 181.476 47.8933 179.77 46.96C178.063 46 176.716 44.6533 175.73 42.92C174.77 41.1867 174.29 39.1867 174.29 36.92C174.29 34.6533 174.783 32.6533 175.77 30.92C176.783 29.1867 178.156 27.8533 179.89 26.92C181.623 25.96 183.556 25.48 185.69 25.48C187.823 25.48 189.756 25.96 191.49 26.92C193.223 27.8533 194.583 29.1867 195.57 30.92C196.583 32.6533 197.09 34.6533 197.09 36.92C197.09 39.1867 196.57 41.1867 195.53 42.92C194.516 44.6533 193.13 46 191.37 46.96C189.636 47.8933 187.69 48.36 185.53 48.36ZM185.53 43.48C186.543 43.48 187.49 43.24 188.37 42.76C189.276 42.2533 189.996 41.5067 190.53 40.52C191.063 39.5333 191.33 38.3333 191.33 36.92C191.33 34.8133 190.77 33.2 189.65 32.08C188.556 30.9333 187.21 30.36 185.61 30.36C184.01 30.36 182.663 30.9333 181.57 32.08C180.503 33.2 179.97 34.8133 179.97 36.92C179.97 39.0267 180.49 40.6533 181.53 41.8C182.596 42.92 183.93 43.48 185.53 43.48ZM207.678 48.36C205.864 48.36 204.238 48.04 202.798 47.4C201.358 46.7333 200.211 45.84 199.358 44.72C198.531 43.6 198.078 42.36 197.998 41H203.638C203.744 41.8533 204.158 42.56 204.878 43.12C205.624 43.68 206.544 43.96 207.638 43.96C208.704 43.96 209.531 43.7467 210.118 43.32C210.731 42.8933 211.038 42.3467 211.038 41.68C211.038 40.96 210.664 40.4267 209.918 40.08C209.198 39.7067 208.038 39.3067 206.438 38.88C204.784 38.48 203.424 38.0667 202.358 37.64C201.318 37.2133 200.411 36.56 199.638 35.68C198.891 34.8 198.518 33.6133 198.518 32.12C198.518 30.8933 198.864 29.7733 199.558 28.76C200.278 27.7467 201.291 26.9467 202.598 26.36C203.931 25.7733 205.491 25.48 207.278 25.48C209.918 25.48 212.024 26.1467 213.598 27.48C215.171 28.7867 216.038 30.56 216.198 32.8H210.838C210.758 31.92 210.384 31.2267 209.718 30.72C209.078 30.1867 208.211 29.92 207.118 29.92C206.104 29.92 205.318 30.1067 204.758 30.48C204.224 30.8533 203.958 31.3733 203.958 32.04C203.958 32.7867 204.331 33.36 205.078 33.76C205.824 34.1333 206.984 34.52 208.558 34.92C210.158 35.32 211.478 35.7333 212.518 36.16C213.558 36.5867 214.451 37.2533 215.198 38.16C215.971 39.04 216.371 40.2133 216.398 41.68C216.398 42.96 216.038 44.1067 215.318 45.12C214.624 46.1333 213.611 46.9333 212.278 47.52C210.971 48.08 209.438 48.36 207.678 48.36ZM225.514 30.44V41.16C225.514 41.9067 225.688 42.4533 226.034 42.8C226.408 43.12 227.021 43.28 227.874 43.28H230.474V48H226.954C222.234 48 219.874 45.7067 219.874 41.12V30.44H217.234V25.84H219.874V20.36H225.514V25.84H230.474V30.44H225.514Z" fill="#009966"/>
</g>
<defs>
<clipPath id="clip0_86_8">
<rect width="238" height="53" fill="white"/>
</clipPath>
</defs>
</svg>
